<svg xmlns="http://www.w3.org/2000/svg" xmlns:svg="http://www.w3.org/2000/svg" xmlns:xlink="http://www.w3.org/1999/xlink" id="svg2" width="128" height="128" version="1.0"><metadata id="metadata3"/><defs id="defs4"><linearGradient id="linearGradient3327"><stop id="stop3329" offset="0" style="stop-color:#fff;stop-opacity:1"/><stop id="stop3331" offset="1" style="stop-color:#fff;stop-opacity:0"/></linearGradient><linearGradient id="linearGradient4150"><stop id="stop4152" offset="0" style="stop-color:#bfffbf;stop-opacity:1"/><stop id="stop4154" offset="1" style="stop-color:#bfffbf;stop-opacity:0"/></linearGradient><linearGradient id="linearGradient3409"><stop id="stop3411" offset="0" style="stop-color:#fff;stop-opacity:1"/><stop id="stop3413" offset="1" style="stop-color:#fff;stop-opacity:0"/></linearGradient><linearGradient id="linearGradient3362"><stop id="stop3364" offset="0" style="stop-color:#bfffbf;stop-opacity:1"/><stop id="stop3366" offset="1" style="stop-color:#bfffbf;stop-opacity:0"/></linearGradient><linearGradient id="linearGradient3355"><stop id="stop3357" offset="0" style="stop-color:#e0ffe0;stop-opacity:1"/><stop id="stop3359" offset="1" style="stop-color:#bfffbf;stop-opacity:0"/></linearGradient><linearGradient id="linearGradient3349"><stop id="stop3351" offset="0" style="stop-color:#0d0;stop-opacity:1"/><stop id="stop3353" offset="1" style="stop-color:#000e00;stop-opacity:1"/></linearGradient><linearGradient id="linearGradient3342"><stop id="stop3344" offset="0" style="stop-color:#0f0;stop-opacity:1"/><stop id="stop3346" offset="1" style="stop-color:#004d00;stop-opacity:1"/></linearGradient><linearGradient id="linearGradient3710"><stop id="stop3712" offset="0" style="stop-color:#fff;stop-opacity:1"/><stop id="stop3714" offset="1" style="stop-color:#fff;stop-opacity:0"/></linearGradient><linearGradient id="linearGradient3689"><stop id="stop3691" offset="0" style="stop-color:#f0ff80;stop-opacity:1"/><stop id="stop3693" offset="1" style="stop-color:#f0ff80;stop-opacity:0"/></linearGradient><linearGradient id="linearGradient3669"><stop id="stop3671" offset="0" style="stop-color:#fff;stop-opacity:1"/><stop id="stop3673" offset="1" style="stop-color:#fff;stop-opacity:0"/></linearGradient><linearGradient id="linearGradient3511"><stop id="stop3513" offset="0" style="stop-color:#002a0d;stop-opacity:1"/><stop id="stop3515" offset="1" style="stop-color:#002a0d;stop-opacity:0"/></linearGradient><radialGradient id="radialGradient2854" cx="538.773" cy="651.104" r="126.023" gradientTransform="translate(-484,-674)" gradientUnits="userSpaceOnUse"><stop id="stop2856" offset="0" style="stop-color:#cbcbcb;stop-opacity:1"/><stop id="stop2858" offset=".539" style="stop-color:#282828;stop-opacity:1"/><stop id="stop2860" offset="1" style="stop-color:#9d9d9d;stop-opacity:1"/></radialGradient><linearGradient id="linearGradient2862" x1="538.773" x2="538.773" y1="677.877" y2="789.122" gradientTransform="translate(-484,-674)" gradientUnits="userSpaceOnUse"><stop id="stop2864" offset=".006" style="stop-color:#4d4d4d;stop-opacity:1"/><stop id="stop2866" offset=".135" style="stop-color:#676767;stop-opacity:1"/><stop id="stop2868" offset=".483" style="stop-color:#b2b2b2;stop-opacity:1"/><stop id="stop2870" offset=".63" style="stop-color:#aaa;stop-opacity:1"/><stop id="stop2872" offset=".853" style="stop-color:#a1a1a1;stop-opacity:1"/><stop id="stop2874" offset="1" style="stop-color:#9d9d9d;stop-opacity:1"/></linearGradient><radialGradient id="radialGradient2876" cx="538.773" cy="792.996" r="121.547" gradientTransform="translate(-484,-674)" gradientUnits="userSpaceOnUse"><stop id="stop2878" offset="0" style="stop-color:#d9d9d9;stop-opacity:1"/><stop id="stop2880" offset=".049" style="stop-color:#c7c7c7;stop-opacity:1"/><stop id="stop2882" offset=".105" style="stop-color:#b9b9b9;stop-opacity:1"/><stop id="stop2884" offset=".143" style="stop-color:#aeaeae;stop-opacity:1"/><stop id="stop2886" offset=".216" style="stop-color:#a9a9a9;stop-opacity:1"/><stop id="stop2888" offset=".27" style="stop-color:#a6a6a6;stop-opacity:1"/><stop id="stop2890" offset=".399" style="stop-color:#676767;stop-opacity:1"/><stop id="stop2892" offset=".4" style="stop-color:#676767;stop-opacity:1"/><stop id="stop2894" offset=".448" style="stop-color:#545454;stop-opacity:1"/><stop id="stop2896" offset=".496" style="stop-color:#414141;stop-opacity:1"/><stop id="stop2898" offset=".54" style="stop-color:#353535;stop-opacity:1"/><stop id="stop2900" offset=".571" style="stop-color:#313131;stop-opacity:1"/><stop id="stop2902" offset=".595" style="stop-color:#3e3e3e;stop-opacity:1"/><stop id="stop2904" offset=".646" style="stop-color:#5f5f5f;stop-opacity:1"/><stop id="stop2906" offset=".693" style="stop-color:#707070;stop-opacity:1"/><stop id="stop2908" offset=".736" style="stop-color:#7b7b7b;stop-opacity:1"/><stop id="stop2910" offset=".77" style="stop-color:#7f7f7f;stop-opacity:1"/><stop id="stop2912" offset="1" style="stop-color:#313131;stop-opacity:1"/></radialGradient><linearGradient id="linearGradient2914" x1="538.773" x2="538.773" y1="793" y2="674" gradientTransform="translate(-484,-674)" gradientUnits="userSpaceOnUse"><stop id="stop2916" offset="0" style="stop-color:#262626;stop-opacity:1"/><stop id="stop2918" offset=".112" style="stop-color:#313131;stop-opacity:1"/><stop id="stop2920" offset=".375" style="stop-color:#4d4d4d;stop-opacity:1"/><stop id="stop2922" offset=".423" style="stop-color:#505050;stop-opacity:1"/><stop id="stop2924" offset=".437" style="stop-color:#575757;stop-opacity:1"/><stop id="stop2926" offset=".449" style="stop-color:#646464;stop-opacity:1"/><stop id="stop2928" offset=".461" style="stop-color:#757575;stop-opacity:1"/><stop id="stop2930" offset=".471" style="stop-color:#8a8a8a;stop-opacity:1"/><stop id="stop2932" offset=".481" style="stop-color:#a3a3a3;stop-opacity:1"/><stop id="stop2934" offset=".491" style="stop-color:silver;stop-opacity:1"/><stop id="stop2936" offset=".494" style="stop-color:#dfdfdf;stop-opacity:1"/><stop id="stop2938" offset=".517" style="stop-color:#afafaf;stop-opacity:1"/><stop id="stop2940" offset=".533" style="stop-color:#949494;stop-opacity:1"/><stop id="stop2942" offset=".555" style="stop-color:#7c7c7c;stop-opacity:1"/><stop id="stop2944" offset=".585" style="stop-color:#656565;stop-opacity:1"/><stop id="stop2946" offset=".609" style="stop-color:#525252;stop-opacity:1"/><stop id="stop2948" offset=".642" style="stop-color:#434343;stop-opacity:1"/><stop id="stop2951" offset=".693" style="stop-color:#393939;stop-opacity:1"/><stop id="stop2953" offset=".74" style="stop-color:#333;stop-opacity:1"/><stop id="stop2955" offset=".899" style="stop-color:#313131;stop-opacity:1"/><stop id="stop2957" offset="1" style="stop-color:#a6a8a4;stop-opacity:1"/></linearGradient><radialGradient id="path2295_1_" cx="265.393" cy="-6078.353" r="253.019" fx="369.524" fy="-6078.353" gradientTransform="matrix(0.183616,0,0,-1.462967e-2,-0.962917,-7.25873)" gradientUnits="userSpaceOnUse"><stop id="stop8" offset="0" style="stop-color:#000;stop-opacity:1"/><stop id="stop10" offset="1" style="stop-color:#fff;stop-opacity:1"/></radialGradient><filter id="filter3681" width="1.245" height="1.158" x="-.122" y="-.079"><feGaussianBlur id="feGaussianBlur3683" stdDeviation=".322"/></filter><filter id="filter3722" width="1.904" height="1.598" x="-.452" y="-.299"><feGaussianBlur id="feGaussianBlur3724" stdDeviation="1.348"/></filter><filter id="filter3435"><feGaussianBlur id="feGaussianBlur3437" stdDeviation=".395"/></filter><filter id="filter3467"><feGaussianBlur id="feGaussianBlur3469" stdDeviation=".435"/></filter><linearGradient id="linearGradient4009" x1="71.626" x2="46.226" y1="123.739" y2="28.943" gradientTransform="translate(-28,0)" gradientUnits="userSpaceOnUse" xlink:href="#linearGradient3342"/><radialGradient id="radialGradient4011" cx="71.775" cy="16.087" r="3.156" fx="71.775" fy="16.087" gradientTransform="matrix(0.9650814,0.2619502,-0.9201984,3.3902106,-6.690938,-57.693239)" gradientUnits="userSpaceOnUse" xlink:href="#linearGradient3669"/><linearGradient id="linearGradient4013" x1="96.373" x2="96.373" y1="120.428" y2="46.09" gradientTransform="translate(-24,0)" gradientUnits="userSpaceOnUse" xlink:href="#linearGradient3511"/><radialGradient id="radialGradient4017" cx="11.578" cy="64.531" r="3.578" fx="11.578" fy="64.531" gradientTransform="matrix(6.5079869,0,0,1.510917,-63.772161,-32.970115)" gradientUnits="userSpaceOnUse" xlink:href="#linearGradient3710"/><radialGradient id="radialGradient4019" cx="53.63" cy="79.056" r="50" fx="57.059" fy="91.805" gradientTransform="matrix(1.4429896,7.9739349e-8,-7.654978e-8,1.3852701,-54.365246,-31.441692)" gradientUnits="userSpaceOnUse" xlink:href="#linearGradient3349"/><linearGradient id="linearGradient4021" x1="91.785" x2="91.993" y1="112.5" y2="44.287" gradientTransform="translate(-24,0)" gradientUnits="userSpaceOnUse" xlink:href="#linearGradient3355"/><linearGradient id="linearGradient4023" x1="62" x2="87.011" y1="12.9" y2="69.693" gradientTransform="translate(-44,0)" gradientUnits="userSpaceOnUse" xlink:href="#linearGradient3362"/><linearGradient id="linearGradient4025" x1="103.749" x2="72.5" y1="84.079" y2="37.75" gradientTransform="translate(-44,0)" gradientUnits="userSpaceOnUse" xlink:href="#linearGradient3409"/><linearGradient id="linearGradient4027" x1="93.469" x2="97.777" y1="10.426" y2="55.545" gradientTransform="translate(-44,0)" gradientUnits="userSpaceOnUse" xlink:href="#linearGradient3409"/><linearGradient id="linearGradient4029" x1="71.626" x2="46.226" y1="123.739" y2="28.943" gradientTransform="translate(-28,0)" gradientUnits="userSpaceOnUse" xlink:href="#linearGradient3342"/><radialGradient id="radialGradient4031" cx="71.775" cy="16.087" r="3.156" fx="71.775" fy="16.087" gradientTransform="matrix(0.9650814,0.2619502,-0.9201984,3.3902106,-6.690938,-57.693239)" gradientUnits="userSpaceOnUse" xlink:href="#linearGradient3669"/><linearGradient id="linearGradient4033" x1="96.373" x2="96.373" y1="120.428" y2="46.09" gradientTransform="translate(-24,0)" gradientUnits="userSpaceOnUse" xlink:href="#linearGradient3511"/><radialGradient id="radialGradient4035" cx="71.775" cy="16.087" r="3.156" fx="71.775" fy="16.087" gradientTransform="matrix(0.9650814,0.2619502,-0.9201984,3.3902106,17.309062,-57.693239)" gradientUnits="userSpaceOnUse" xlink:href="#linearGradient3689"/><radialGradient id="radialGradient4037" cx="11.578" cy="64.531" r="3.578" fx="11.578" fy="64.531" gradientTransform="matrix(6.5079869,0,0,1.510917,-63.772161,-32.970115)" gradientUnits="userSpaceOnUse" xlink:href="#linearGradient3710"/><radialGradient id="radialGradient4039" cx="53.63" cy="79.056" r="50" fx="57.059" fy="91.805" gradientTransform="matrix(1.4429896,7.9739349e-8,-7.654978e-8,1.3852701,-54.365246,-31.441692)" gradientUnits="userSpaceOnUse" xlink:href="#linearGradient3349"/><linearGradient id="linearGradient4041" x1="91.785" x2="91.993" y1="112.5" y2="44.287" gradientTransform="translate(-24,0)" gradientUnits="userSpaceOnUse" xlink:href="#linearGradient3355"/><linearGradient id="linearGradient4043" x1="62" x2="87.011" y1="12.9" y2="69.693" gradientTransform="translate(-44,0)" gradientUnits="userSpaceOnUse" xlink:href="#linearGradient3362"/><linearGradient id="linearGradient4045" x1="103.749" x2="72.5" y1="84.079" y2="37.75" gradientTransform="translate(-44,0)" gradientUnits="userSpaceOnUse" xlink:href="#linearGradient3409"/><linearGradient id="linearGradient4047" x1="93.469" x2="97.777" y1="10.426" y2="55.545" gradientTransform="translate(-44,0)" gradientUnits="userSpaceOnUse" xlink:href="#linearGradient3409"/><linearGradient id="linearGradient4068" x1="93.469" x2="97.777" y1="10.426" y2="55.545" gradientTransform="translate(-36,0)" gradientUnits="userSpaceOnUse" xlink:href="#linearGradient3409"/><linearGradient id="linearGradient4071" x1="103.749" x2="72.5" y1="84.079" y2="37.75" gradientTransform="translate(-36,0)" gradientUnits="userSpaceOnUse" xlink:href="#linearGradient3409"/><linearGradient id="linearGradient4074" x1="62" x2="87.011" y1="12.9" y2="69.693" gradientTransform="translate(-36,0)" gradientUnits="userSpaceOnUse" xlink:href="#linearGradient3362"/><linearGradient id="linearGradient4077" x1="91.785" x2="91.993" y1="112.5" y2="44.287" gradientTransform="translate(-16,0)" gradientUnits="userSpaceOnUse" xlink:href="#linearGradient3355"/><radialGradient id="radialGradient4080" cx="53.63" cy="79.056" r="50" fx="57.059" fy="91.805" gradientTransform="matrix(1.4429896,7.9739349e-8,-7.654978e-8,1.3852701,-46.365246,-31.441692)" gradientUnits="userSpaceOnUse" xlink:href="#linearGradient3349"/><linearGradient id="linearGradient4085" x1="96.373" x2="96.373" y1="120.428" y2="46.09" gradientTransform="translate(-16,0)" gradientUnits="userSpaceOnUse" xlink:href="#linearGradient3511"/><radialGradient id="radialGradient4088" cx="71.775" cy="16.087" r="3.156" fx="71.775" fy="16.087" gradientTransform="matrix(0.9650814,0.2619502,-0.9201984,3.3902106,9.309062,-57.693239)" gradientUnits="userSpaceOnUse" xlink:href="#linearGradient3669"/><linearGradient id="linearGradient4091" x1="71.626" x2="46.226" y1="123.739" y2="28.943" gradientTransform="translate(-20,0)" gradientUnits="userSpaceOnUse" xlink:href="#linearGradient3342"/><linearGradient id="linearGradient4095" x1="93.469" x2="97.777" y1="10.426" y2="55.545" gradientTransform="translate(-4,0)" gradientUnits="userSpaceOnUse" xlink:href="#linearGradient3409"/><linearGradient id="linearGradient4098" x1="103.749" x2="72.5" y1="84.079" y2="37.75" gradientTransform="translate(-4,0)" gradientUnits="userSpaceOnUse" xlink:href="#linearGradient3409"/><linearGradient id="linearGradient4101" x1="62" x2="87.011" y1="12.9" y2="69.693" gradientTransform="translate(-4,0)" gradientUnits="userSpaceOnUse" xlink:href="#linearGradient3362"/><linearGradient id="linearGradient4104" x1="91.785" x2="91.993" y1="112.5" y2="44.287" gradientTransform="translate(36,0)" gradientUnits="userSpaceOnUse" xlink:href="#linearGradient3355"/><radialGradient id="radialGradient4107" cx="53.63" cy="79.056" r="50" fx="57.059" fy="91.805" gradientTransform="matrix(1.4429896,7.9739349e-8,-7.654978e-8,1.3852701,5.634754,-31.441692)" gradientUnits="userSpaceOnUse" xlink:href="#linearGradient3349"/><linearGradient id="linearGradient4112" x1="96.373" x2="96.373" y1="120.428" y2="46.09" gradientTransform="translate(36,0)" gradientUnits="userSpaceOnUse" xlink:href="#linearGradient3511"/><linearGradient id="linearGradient4118" x1="71.626" x2="46.226" y1="123.739" y2="28.943" gradientTransform="translate(12,0)" gradientUnits="userSpaceOnUse" xlink:href="#linearGradient3342"/><linearGradient id="linearGradient4129" x1="71.626" x2="46.226" y1="123.739" y2="28.943" gradientTransform="translate(32,0)" gradientUnits="userSpaceOnUse" xlink:href="#linearGradient3342"/><radialGradient id="radialGradient4145" cx="47.935" cy="77.573" r="50" fx="48.231" fy="84.389" gradientTransform="matrix(1.4429896,7.9739349e-8,-7.654978e-8,1.3852701,5.634754,-31.441692)" gradientUnits="userSpaceOnUse" xlink:href="#linearGradient3349"/><linearGradient id="linearGradient4162" x1="35.63" x2="46.759" y1="11.48" y2="70.828" gradientTransform="matrix(0.988811,0,0,0.9872502,-4.2657949e-2,0.2039966)" gradientUnits="userSpaceOnUse" xlink:href="#linearGradient4150"/><linearGradient id="linearGradient4164" x1="35.63" x2="46.759" y1="11.48" y2="70.828" gradientTransform="translate(20,0)" gradientUnits="userSpaceOnUse" xlink:href="#linearGradient4150"/><linearGradient id="linearGradient4179" x1="35.63" x2="46.759" y1="11.48" y2="70.828" gradientTransform="matrix(0.9955244,0,0,0.9872502,0.3938517,0.8203689)" gradientUnits="userSpaceOnUse" xlink:href="#linearGradient4150"/><linearGradient id="linearGradient4181" x1="35.63" x2="46.759" y1="11.48" y2="70.828" gradientTransform="translate(20,0)" gradientUnits="userSpaceOnUse" xlink:href="#linearGradient4150"/><linearGradient id="linearGradient3296" x1="96.373" x2="96.373" y1="120.428" y2="46.09" gradientTransform="translate(24,0)" gradientUnits="userSpaceOnUse" xlink:href="#linearGradient3511"/><linearGradient id="linearGradient3310" x1="71.626" x2="46.226" y1="123.739" y2="28.943" gradientTransform="translate(20,0)" gradientUnits="userSpaceOnUse" xlink:href="#linearGradient3342"/><radialGradient id="radialGradient3312" cx="47.935" cy="77.573" r="50" fx="48.231" fy="84.389" gradientTransform="matrix(1.4429896,7.9739349e-8,-7.654978e-8,1.3852701,-6.365246,-31.441692)" gradientUnits="userSpaceOnUse" xlink:href="#linearGradient3349"/><linearGradient id="linearGradient3314" x1="91.785" x2="91.993" y1="112.5" y2="44.287" gradientTransform="translate(24,0)" gradientUnits="userSpaceOnUse" xlink:href="#linearGradient3355"/><linearGradient id="linearGradient3316" x1="35.63" x2="46.759" y1="11.48" y2="70.828" gradientTransform="translate(8,0)" gradientUnits="userSpaceOnUse" xlink:href="#linearGradient4150"/><linearGradient id="linearGradient3344" x1="56" x2="34.345" y1="67.238" y2="40.172" gradientTransform="translate(28,0)" gradientUnits="userSpaceOnUse" xlink:href="#linearGradient3327"/><linearGradient id="linearGradient3356" x1="42.548" x2="46.759" y1="13.922" y2="70.828" gradientTransform="translate(28,0)" gradientUnits="userSpaceOnUse" xlink:href="#linearGradient3327"/><linearGradient id="linearGradient15792" x1="30.416" x2="109.244" y1="62.733" y2="62.733" gradientUnits="userSpaceOnUse" xlink:href="#linearGradient15786"/><linearGradient id="linearGradient15786"><stop id="stop15788" offset="0" style="stop-color:#69c;stop-opacity:1"/><stop id="stop15790" offset="1" style="stop-color:#369;stop-opacity:1"/></linearGradient><linearGradient id="linearGradient17738" x1="30.416" x2="109.244" y1="62.733" y2="62.733" gradientUnits="userSpaceOnUse" xlink:href="#linearGradient17732"/><linearGradient id="linearGradient17732"><stop id="stop17734" offset="0" style="stop-color:#004c99;stop-opacity:1"/><stop id="stop17736" offset="1" style="stop-color:#a0d0ff;stop-opacity:1"/></linearGradient><filter id="filter3143" color-interpolation-filters="sRGB"><feGaussianBlur id="feGaussianBlur3145" stdDeviation="3.153"/></filter><linearGradient id="linearGradient9938" x1="62.606" x2="62.606" y1="56.016" y2="83.39" gradientUnits="userSpaceOnUse" xlink:href="#linearGradient4112-8"/><linearGradient id="linearGradient4112-8"><stop id="stop4114" offset="0" style="stop-color:#fff;stop-opacity:1"/><stop id="stop4116" offset="1" style="stop-color:#ccc;stop-opacity:1"/></linearGradient><linearGradient id="linearGradient8196" x1="71.35" x2="71.35" y1="12.866" y2="70.948" gradientUnits="userSpaceOnUse" xlink:href="#linearGradient8190"/><linearGradient id="linearGradient8190"><stop id="stop8192" offset="0" style="stop-color:#fff;stop-opacity:1"/><stop id="stop8194" offset="1" style="stop-color:#fff;stop-opacity:0"/></linearGradient><linearGradient id="linearGradient4237" x1="64" x2="63.766" y1="60" y2="27.906" gradientTransform="matrix(0.8660254,-0.5,0.5,0.8660254,-20.889626,46.038475)" gradientUnits="userSpaceOnUse" xlink:href="#linearGradient4242"/><linearGradient id="linearGradient4242"><stop id="stop4244" offset="0" style="stop-color:#888;stop-opacity:1"/><stop id="stop4246" offset="1" style="stop-color:#666;stop-opacity:1"/></linearGradient><linearGradient id="linearGradient4240" x1="72.667" x2="108.5" y1="64" y2="64" gradientTransform="matrix(0.8660254,0.5,0.5,-0.8660254,-25.425626,89.425626)" gradientUnits="userSpaceOnUse" xlink:href="#linearGradient4242"/><linearGradient id="linearGradient3600"><stop id="stop3602" offset="0" style="stop-color:#888;stop-opacity:1"/><stop id="stop3604" offset="1" style="stop-color:#666;stop-opacity:1"/></linearGradient><linearGradient id="linearGradient12857" x1="55.154" x2="71.418" y1="64.36" y2="64.36" gradientUnits="userSpaceOnUse" xlink:href="#linearGradient12851"/><linearGradient id="linearGradient12851"><stop id="stop12853" offset="0" style="stop-color:#666;stop-opacity:1"/><stop id="stop12855" offset="1" style="stop-color:#333;stop-opacity:1"/></linearGradient><linearGradient id="linearGradient12866" x1="55.154" x2="71.418" y1="64.36" y2="64.36" gradientUnits="userSpaceOnUse" xlink:href="#linearGradient8190"/><linearGradient id="linearGradient3611"><stop id="stop3613" offset="0" style="stop-color:#fff;stop-opacity:1"/><stop id="stop3615" offset="1" style="stop-color:#fff;stop-opacity:0"/></linearGradient></defs><g id="layer1"><g id="g3936" transform="matrix(-1,0,0,1,94,0)"><path id="path3987" d="m 63.875,12 c -0.865503,0.02693 -1.698899,0.33398 -2.375,0.875 l -60,48 C 0.550144,61.63413 0,62.78406 0,64 c 0,1.21594 0.550144,2.36587 1.5,3.125 l 60,48 c 1.200963,0.96113 2.832437,1.13525 4.21875,0.46875 C 67.105067,114.92725 68.000642,113.53821 68,112 L 68,94.71875 68,33.28125 68,16 C 68.000417,14.91715 67.558627,13.87882 66.78125,13.125 66.003873,12.37118 64.957323,11.96627 63.875,12 z" style="opacity:.53694584;fill:#004d00;fill-opacity:1;fill-rule:evenodd;stroke:#004d00;stroke-width:1;stroke-linecap:butt;stroke-linejoin:round;stroke-miterlimit:4;stroke-opacity:1;stroke-dasharray:none;filter:url(#filter3467)"/><path id="path3989" d="m 63.875,12 c -0.865503,0.02693 -1.698899,0.33398 -2.375,0.875 l -60,48 C 0.550144,61.63413 0,62.78406 0,64 c 0,1.21594 0.550144,2.36587 1.5,3.125 l 60,48 c 1.200963,0.96113 2.832437,1.13525 4.21875,0.46875 C 67.105067,114.92725 68.000642,113.53821 68,112 l 0,-17.28125 0,-10.25 0,-0.59375 0,-5.8125 0,-28.125 L 68,45 68,43.53125 68,33.28125 68,16 C 68.000417,14.91715 67.558627,13.87882 66.78125,13.125 66.003873,12.37118 64.957323,11.96627 63.875,12 z M 60,24.3125 60,39.6875 54.59375,44 45,44 c -0.554,0 -1,0.446 -1,1 L 44,52.46875 33.5,60.875 C 32.550144,61.63413 32,62.78406 32,64 c 0,1.21594 0.550144,2.36587 1.5,3.125 L 44,75.53125 44,83.875 c 0,0.554 0.446,1 1,1 l 10.6875,0 L 60,88.3125 60,103.6875 10.40625,64 60,24.3125 z M 44,62.71875 44,65.28125 42.40625,64 44,62.71875 z" style="fill:url(#linearGradient3310);fill-opacity:1;fill-rule:evenodd;stroke:none"/><path id="path3993" d="m 63.875,12 c -0.865503,0.02693 -1.698899,0.33398 -2.375,0.875 l -60,48 C 0.550144,61.63413 0,62.78406 0,64 c 0,1.21594 0.550144,2.36587 1.5,3.125 l 60,48 c 1.200963,0.96113 2.832437,1.13525 4.21875,0.46875 C 67.105067,114.92725 68.000642,113.53821 68,112 l 0,-17.28125 0,-10.25 0,-0.59375 0,-0.6875 0,-5.125 0,-28.125 0,-4.9375 0,-0.1875 0,-1.28125 0,-10.25 L 68,16 C 68.000417,14.91715 67.558627,13.87882 66.78125,13.125 66.003873,12.37118 64.957323,11.96627 63.875,12 z M 60,24.3125 60,39.6875 54.59375,44 45,44 c -0.554,0 -1,0.446 -1,1 L 44,52.46875 33.5,60.875 C 32.550144,61.63413 32,62.78406 32,64 c 0,1.21594 0.550144,2.36587 1.5,3.125 L 44,75.53125 44,83.875 c 0,0.554 0.446,1 1,1 l 10.6875,0 L 60,88.3125 60,103.6875 10.40625,64 60,24.3125 z M 44,62.71875 44,65.28125 42.40625,64 44,62.71875 z" style="opacity:.53694584;fill:url(#linearGradient3296);fill-opacity:1;fill-rule:evenodd;stroke:none"/><path id="path3999" d="M 64,16 4,64 64,112 64,86.40625 64,41.59375 64,16 z" style="fill:url(#radialGradient3312);fill-opacity:1;fill-rule:evenodd;stroke:none"/><path id="path4001" d="M 64,16 4,64 64,112 64,86.40625 64,41.59375 64,16 z" style="fill:none;stroke:url(#linearGradient3314);stroke-width:.5;stroke-linecap:butt;stroke-linejoin:miter;stroke-miterlimit:4;stroke-opacity:1;stroke-dasharray:none;filter:url(#filter3435)"/><path id="path3651" d="m 63.875,12 c -0.799041,0.02487 -1.572946,0.283948 -2.21875,0.75 L 62.625,21.78125 67.96875,15.625 c -0.08779,-0.946211 -0.499493,-1.832841 -1.1875,-2.5 C 66.003873,12.37118 64.957323,11.966273 63.875,12 z" style="opacity:.85;fill:url(#radialGradient4088);fill-opacity:1;fill-rule:evenodd;stroke:none;filter:url(#filter3681)"/><path id="path3685" d="m 71.875,12 c -0.799041,0.02487 -1.572946,0.283948 -2.21875,0.75 L 70.625,21.78125 75.96875,15.625 c -0.08779,-0.946211 -0.499493,-1.832841 -1.1875,-2.5 C 74.003873,12.37118 72.957323,11.966273 71.875,12 z" transform="matrix(1,0,0,-1,-8,127.7793)" style="opacity:.35;fill:url(#radialGradient4035);fill-opacity:1;fill-rule:evenodd;stroke:none;filter:url(#filter3681)"/><path id="path3705" d="M 11.6875,59.125 9.5,60.875 C 8.5501441,61.634129 8,62.784063 8,64 c 10e-8,1.215937 0.5501441,2.365871 1.5,3.125 l 3.53125,2.8125 2.125,-5.625 -3.46875,-5.1875 z" transform="matrix(1,0,0,-1,-8,128.5625)" style="opacity:.5;fill:url(#radialGradient4037);fill-opacity:1;fill-rule:evenodd;stroke:none;filter:url(#filter3722)"/><path id="path4143" d="M 64,16 4.1875,63.84375 c 8.051341,0.325047 16.325945,0.5 24.71875,0.5 12.055796,0 23.792287,-0.368324 35.09375,-1.03125 L 64,41.59375 64,16 z" style="fill:url(#linearGradient3316);fill-opacity:1;fill-rule:evenodd;stroke:none"/><path id="path3335" d="m 84,16 -0.34375,0.28125 0,25.09375 0,21.53125 c -11.238981,0.657345 -22.885856,1.031249 -34.875,1.03125 -8.173257,0 -16.244047,-0.159182 -24.09375,-0.46875 l -0.5,0.375 c 8.051341,0.325047 16.325945,0.5 24.71875,0.5 12.055796,0 23.792287,-0.368324 35.09375,-1.03125 L 84,41.59375 84,16 z" transform="translate(-20,0)" style="fill:url(#linearGradient3344);fill-opacity:1;fill-rule:evenodd;stroke:none"/><path id="path3347" d="M 84,16 24.1875,63.84375 83.75,16.90625 l 0,25.125 0,21.28125 c 0.08232,-0.0048 0.167722,0.0048 0.25,0 L 84,41.59375 84,16 z" transform="translate(-20,0)" style="fill:url(#linearGradient3356);fill-opacity:1;fill-rule:evenodd;stroke:none"/></g><g id="g3556" transform="matrix(0.42483663,0,0,0.43207857,52.000002,63.728312)"><path style="fill:url(#linearGradient15792);fill-opacity:1;stroke:none" id="path2358" d="m 109.24356,62.732674 c 0,21.767674 -17.646182,39.413856 -39.413856,39.413856 -21.767674,0 -39.41386,-17.646182 -39.41386,-39.413856 0,-21.767674 17.646186,-39.413861 39.41386,-39.413861 21.767674,0 39.413856,17.646187 39.413856,39.413861 z" transform="matrix(0,1.6237943,-1.6237943,0,165.86496,-49.389074)"/><path style="fill:url(#linearGradient17738);fill-opacity:1;stroke:none;filter:url(#filter3143)" id="path5267" d="m 109.24356,62.732674 c 0,21.767674 -17.646182,39.413856 -39.413856,39.413856 -21.767674,0 -39.41386,-17.646182 -39.41386,-39.413856 0,-21.767674 17.646186,-39.413861 39.41386,-39.413861 21.767674,0 39.413856,17.646187 39.413856,39.413861 z" transform="matrix(-1.0087051e-7,1.3193328,-1.4208199,0,153.13184,-28.128621)"/><path style="fill:url(#linearGradient9938);fill-opacity:1;stroke:none" id="path9167" d="m 76.293071,69.702972 c 0,7.559193 -6.127937,13.687129 -13.687129,13.687129 -7.559193,0 -13.687129,-6.127936 -13.687129,-13.687129 0,-7.559192 6.127936,-13.687129 13.687129,-13.687129 7.559192,0 13.687129,6.127937 13.687129,13.687129 z" transform="matrix(3.5069442,0,0,-3.5069443,-155.55554,308.44444)"/><path style="opacity:.8;fill:url(#linearGradient8196);fill-opacity:1;stroke:none" id="path7219" d="m 104.93465,44.48317 c 0,13.508556 -15.036136,24.459405 -33.584156,24.459405 -18.548019,0 -33.584159,-10.950849 -33.584159,-24.459405 0,-13.508557 15.03614,-24.459406 33.584159,-24.459406 18.54802,0 33.584156,10.950849 33.584156,24.459406 z" transform="matrix(1.1910377,0,0,1.2265221,-20.98113,-4.5595891)"/><path style="fill:url(#linearGradient4237);fill-opacity:1;stroke:none" id="rect12859" d="M 47.071899,43.751288 46.536,34.823085 l 7.464102,4.928203 14,24.248712 -6.928203,4 -14,-24.248712 z"/><path style="fill:url(#linearGradient4240);fill-opacity:1;stroke:none" id="path2274" d="M 94.64102,89.464101 103.56922,90 l -4.9282,-7.464102 -34.64102,-20 -4,6.928203 34.64102,20 z"/><path style="fill:url(#linearGradient12857);fill-opacity:1;stroke:none" id="path11880" d="m 71.417785,64.36039 c 0,4.491029 -3.640699,8.131728 -8.131728,8.131728 -4.49103,0 -8.131729,-3.640699 -8.131729,-8.131728 0,-4.49103 3.640699,-8.131728 8.131729,-8.131728 4.491029,0 8.131728,3.640698 8.131728,8.131728 z" transform="matrix(0,0.9838011,-0.9838005,0,127.31778,1.7391021)"/><path style="opacity:.6;fill:url(#linearGradient12866);fill-opacity:1;stroke:none" id="path12864" d="m 71.417785,64.36039 c 0,4.491029 -3.640699,8.131728 -8.131728,8.131728 -4.49103,0 -8.131729,-3.640699 -8.131729,-8.131728 0,-4.49103 3.640699,-8.131728 8.131729,-8.131728 4.491029,0 8.131728,3.640698 8.131728,8.131728 z" transform="matrix(0,-0.4919007,-0.4919007,0,95.658919,95.130458)"/><path style="fill:#336;fill-opacity:1;stroke:none" id="path11880-9" d="m 71.417785,64.36039 c 0,4.491029 -3.640699,8.131728 -8.131728,8.131728 -4.49103,0 -8.131729,-3.640699 -8.131729,-8.131728 0,-4.49103 3.640699,-8.131728 8.131729,-8.131728 4.491029,0 8.131728,3.640698 8.131728,8.131728 z" transform="matrix(0,0.9838011,-0.9838005,0,127.31778,-58.260898)"/></g><rect style="fill:#d40000" id="rect3729" width="69.311" height="4.951" x="-42.742" y="118.654" ry="0" transform="matrix(0.69253183,-0.72138732,0.69253183,0.72138732,0,0)"/></g></svg>