<svg xmlns="http://www.w3.org/2000/svg" xmlns:svg="http://www.w3.org/2000/svg" xmlns:xlink="http://www.w3.org/1999/xlink" id="Layer_1" width="128" height="128" enable-background="new 0 0 128 128" overflow="visible" space="preserve" version="1.1" viewBox="0 0 128 128"><metadata id="metadata4268"/><defs id="defs105"><linearGradient id="linearGradient4389"><stop style="stop-color:#be0000;stop-opacity:1" id="stop4391" offset="0"/><stop style="stop-color:#be0000;stop-opacity:0" id="stop4393" offset="1"/></linearGradient><linearGradient id="linearGradient9732"><stop id="stop9734" offset="0" style="stop-color:white;stop-opacity:1"/><stop id="stop9740" offset=".5" style="stop-color:white;stop-opacity:1"/><stop id="stop9736" offset="1" style="stop-color:white;stop-opacity:0"/></linearGradient><linearGradient id="linearGradient7056"><stop id="stop7058" offset="0" style="stop-color:white;stop-opacity:1"/><stop id="stop7064" offset="1" style="stop-color:white;stop-opacity:1"/><stop id="stop7060" offset="1" style="stop-color:white;stop-opacity:0"/></linearGradient><linearGradient id="linearGradient3506"><stop id="stop3508" offset="0" style="stop-color:#646464;stop-opacity:1"/><stop id="stop11512" offset="0" style="stop-color:#7e7e7e;stop-opacity:1"/><stop id="stop3514" offset=".86" style="stop-color:#999;stop-opacity:.58762884"/><stop id="stop3510" offset="1" style="stop-color:white;stop-opacity:0"/></linearGradient><linearGradient id="linearGradient3291"><stop id="stop3293" offset="0" style="stop-color:black;stop-opacity:1"/><stop id="stop3295" offset="1" style="stop-color:black;stop-opacity:0"/></linearGradient><radialGradient id="radialGradient3336" cx="63.912" cy="115.709" r="63.912" fx="63.912" fy="115.709" gradientTransform="matrix(1,0,0,0.197802,0,92.82166)" gradientUnits="userSpaceOnUse" xlink:href="#linearGradient3291"/><linearGradient id="linearGradient18668" x1="28" x2="28" y1="57.5" y2="0" gradientUnits="userSpaceOnUse"><stop id="stop18670" offset="0" style="stop-color:#fff8a8;stop-opacity:1"/><stop id="stop18672" offset="1" style="stop-color:white;stop-opacity:0"/></linearGradient><linearGradient id="linearGradient15967" x1="28" x2="28" y1="57.5" y2="0" gradientUnits="userSpaceOnUse"><stop id="stop15969" offset="0" style="stop-color:white;stop-opacity:1"/><stop id="stop15971" offset="1" style="stop-color:white;stop-opacity:0"/></linearGradient><linearGradient id="XMLID_2_" x1="28" x2="28" y1="57.5" y2="0" gradientUnits="userSpaceOnUse"><stop id="stop12" offset="0" style="stop-color:#ffea00"/><stop id="stop14" offset="1" style="stop-color:#fc0"/></linearGradient><linearGradient id="linearGradient2391" x1="94.344" x2="86.536" y1="102.345" y2="94.537" gradientUnits="userSpaceOnUse" xlink:href="#XMLID_9_"/><linearGradient id="linearGradient2393" x1="95" x2="86.587" y1="103" y2="94.587" gradientUnits="userSpaceOnUse" xlink:href="#XMLID_10_"/><linearGradient id="linearGradient2395" x1="95" x2="87.293" y1="103" y2="95.293" gradientUnits="userSpaceOnUse" xlink:href="#XMLID_11_"/><linearGradient id="linearGradient2397" x1="96" x2="88" y1="104" y2="96" gradientUnits="userSpaceOnUse" xlink:href="#XMLID_12_"/><radialGradient id="radialGradient2465" cx="102" cy="112.305" r="139.559" gradientUnits="userSpaceOnUse" xlink:href="#XMLID_7_"/><radialGradient id="radialGradient2467" cx="102" cy="112.305" r="139.559" gradientUnits="userSpaceOnUse" xlink:href="#XMLID_8_"/><radialGradient id="radialGradient12366" cx="102" cy="112.305" r="139.559" gradientTransform="translate(0,4)" gradientUnits="userSpaceOnUse" xlink:href="#XMLID_7_"/><radialGradient id="radialGradient12368" cx="102" cy="112.305" r="139.559" gradientTransform="translate(0,4)" gradientUnits="userSpaceOnUse" xlink:href="#XMLID_8_"/><linearGradient id="linearGradient12370" x1="94.344" x2="86.536" y1="102.345" y2="94.537" gradientUnits="userSpaceOnUse" xlink:href="#XMLID_9_"/><linearGradient id="linearGradient12372" x1="95" x2="86.587" y1="103" y2="94.587" gradientUnits="userSpaceOnUse" xlink:href="#XMLID_10_"/><linearGradient id="linearGradient12374" x1="95" x2="87.293" y1="103" y2="95.293" gradientUnits="userSpaceOnUse" xlink:href="#XMLID_11_"/><linearGradient id="linearGradient12376" x1="96" x2="88" y1="104" y2="96" gradientUnits="userSpaceOnUse" xlink:href="#XMLID_12_"/><linearGradient id="linearGradient12378" x1="28" x2="28" y1="57.5" y2="0" gradientUnits="userSpaceOnUse" xlink:href="#XMLID_2_"/><linearGradient id="linearGradient14180" x1="-74.821" x2="-18.122" y1="100.824" y2="100.824" gradientUnits="userSpaceOnUse" xlink:href="#linearGradient2309"/><linearGradient id="linearGradient14189" x1="-74.821" x2="-18.122" y1="100.824" y2="100.824" gradientUnits="userSpaceOnUse" xlink:href="#linearGradient2309"/><linearGradient id="linearGradient15973" x1="27.72" x2="27.72" y1="7.881" y2="30.441" gradientTransform="translate(1.470416e-5,0)" gradientUnits="userSpaceOnUse" xlink:href="#linearGradient15967"/><linearGradient id="linearGradient15977" x1="-74.821" x2="-18.122" y1="100.824" y2="100.824" gradientUnits="userSpaceOnUse" xlink:href="#linearGradient2309"/><radialGradient id="radialGradient15986" cx="26.954" cy="31.045" r="8.968" fx="26.954" fy="31.045" gradientTransform="matrix(0.754978,-2.959381e-2,0,0.905772,7.650275,10.87807)" gradientUnits="userSpaceOnUse" xlink:href="#linearGradient15967"/><linearGradient id="linearGradient18657" x1="28" x2="28" y1="57.5" y2="0" gradientUnits="userSpaceOnUse" xlink:href="#XMLID_2_"/><linearGradient id="linearGradient18649" x1="28" x2="28" y1="57.5" y2="0" gradientUnits="userSpaceOnUse"><stop id="stop18651" offset="0" style="stop-color:#ffea00"/><stop id="stop18653" offset="1" style="stop-color:#fc0"/></linearGradient><linearGradient id="linearGradient18674" x1="-39.531" x2="-39.531" y1="78" y2="51.188" gradientUnits="userSpaceOnUse" xlink:href="#linearGradient18668"/><linearGradient id="linearGradient18746" x1="-39.531" x2="-39.531" y1="78" y2="51.188" gradientUnits="userSpaceOnUse" xlink:href="#linearGradient18668"/><linearGradient id="linearGradient8842" x1="16.097" x2="67.692" y1="50" y2="50" gradientTransform="matrix(1,0,0,-1,0,100)" gradientUnits="userSpaceOnUse" xlink:href="#linearGradient3506"/><linearGradient id="linearGradient4395" x1="30.254" x2="68.001" y1="49.724" y2="49.908" gradientUnits="userSpaceOnUse" xlink:href="#linearGradient4389"/></defs><radialGradient id="XMLID_7_" cx="102" cy="112.305" r="139.559" gradientUnits="userSpaceOnUse"><stop id="stop16" offset="0" style="stop-color:#00537d"/><stop id="stop18" offset=".015" style="stop-color:#186389"/><stop id="stop20" offset=".056" style="stop-color:#558ca8"/><stop id="stop22" offset=".096" style="stop-color:#89afc3"/><stop id="stop24" offset=".136" style="stop-color:#b3ccd8"/><stop id="stop26" offset=".174" style="stop-color:#d4e2e9"/><stop id="stop28" offset=".21" style="stop-color:#ecf2f5"/><stop id="stop30" offset=".243" style="stop-color:#fafcfd"/><stop id="stop32" offset=".272" style="stop-color:#fff"/></radialGradient><radialGradient id="XMLID_8_" cx="102" cy="112.305" r="139.559" gradientUnits="userSpaceOnUse"><stop id="stop37" offset="0" style="stop-color:#535557"/><stop id="stop41" offset=".114" style="stop-color:#898a8c"/><stop id="stop47" offset=".203" style="stop-color:#ececec"/><stop id="stop49" offset=".236" style="stop-color:#fafafa"/><stop id="stop51" offset=".272" style="stop-color:#fff"/><stop id="stop53" offset=".531" style="stop-color:#fafafa"/><stop id="stop55" offset=".845" style="stop-color:#ebecec"/><stop id="stop57" offset="1" style="stop-color:#e1e2e3"/></radialGradient><linearGradient id="XMLID_9_" x1="94.344" x2="86.536" y1="102.345" y2="94.537" gradientUnits="userSpaceOnUse"><stop id="stop62" offset="0" style="stop-color:#fff"/><stop id="stop64" offset="1" style="stop-color:#555753"/></linearGradient><linearGradient id="XMLID_10_" x1="95" x2="86.587" y1="103" y2="94.587" gradientUnits="userSpaceOnUse"><stop id="stop69" offset="0" style="stop-color:#fff"/><stop id="stop71" offset="1" style="stop-color:#555753"/></linearGradient><linearGradient id="XMLID_11_" x1="95" x2="87.293" y1="103" y2="95.293" gradientUnits="userSpaceOnUse"><stop id="stop76" offset="0" style="stop-color:#fff"/><stop id="stop78" offset="1" style="stop-color:#393b38"/></linearGradient><linearGradient id="XMLID_12_" x1="96" x2="88" y1="104" y2="96" gradientUnits="userSpaceOnUse"><stop id="stop83" offset="0" style="stop-color:#888a85"/><stop id="stop85" offset=".007" style="stop-color:#8c8e89"/><stop id="stop87" offset=".067" style="stop-color:#abaca9"/><stop id="stop89" offset=".135" style="stop-color:#c5c6c4"/><stop id="stop91" offset=".211" style="stop-color:#dbdbda"/><stop id="stop93" offset=".301" style="stop-color:#ebebeb"/><stop id="stop95" offset=".412" style="stop-color:#f7f7f6"/><stop id="stop97" offset=".568" style="stop-color:#fdfdfd"/><stop id="stop99" offset="1" style="stop-color:#fff"/></linearGradient><g id="g12352" transform="translate(12,-8)"><g id="g5" transform="translate(0,4)"><path id="path7" d="M 16,4 C 13.794,4 12,5.794 12,8 L 12,118 C 12,121.309 14.691,124 18,124 L 77.172,124 C 78.471,124 79.717,123.513 80.813,122.646 C 80.941,122.593 81.07,122.539 81.07,122.539 C 81.168,122.466 93.204,112.453 98.829,106.828 C 104.203,101.457 113.439,90.403 114.475,89.161 C 115.388,88.279 116,86.722 116,85.172 L 116,8 C 116,5.794 114.206,4 112,4 L 16,4 z" style="opacity:.1"/><path id="path9" d="M 16,5 C 14.346,5 13,6.346 13,8 L 13,118 C 13,120.757 15.243,123 18,123 L 77.172,123 C 78.361,123 79.454,122.53 80.354,121.771 C 80.396,121.75 80.444,121.757 80.483,121.729 C 80.562,121.669 92.5,111.743 98.122,106.121 C 103.434,100.811 112.672,89.763 113.707,88.52 C 114.492,87.756 115.001,86.477 115.001,85.171 L 115.001,8 C 115.001,6.346 113.655,5 112.001,5 L 16,5 z" style="opacity:.15"/><path id="path11" d="M 16,6 C 14.897,6 14,6.897 14,8 L 14,118 C 14,120.206 15.794,122 18,122 L 77.172,122 C 78.24,122 79.244,121.584 80,120.828 C 79.965,120.864 79.926,120.896 79.886,120.927 C 79.962,120.87 91.846,110.983 97.414,105.414 C 102.679,100.15 111.904,89.12 112.938,87.88 C 113.593,87.236 114,86.23 114,85.172 L 114,8 C 114,6.897 113.103,6 112,6 L 16,6 z" style="opacity:.2"/><path id="path13" d="M 16,7 C 15.448,7 15,7.448 15,8 L 15,118 C 15,119.654 16.346,121 18,121 L 77.172,121 C 77.973,121 78.727,120.688 79.293,120.121 C 79.345,120.083 91.238,110.176 96.707,104.707 C 102.176,99.238 112.083,87.345 112.183,87.226 C 112.688,86.727 113,85.973 113,85.172 L 113,8 C 113,7.448 112.553,7 112,7 L 16,7 z" style="opacity:.25"/></g><path id="path34" d="M 16,12 L 16,122 C 16,123.104 16.896,124 18,124 L 77.172,124 C 77.702,124 78.211,123.789 78.586,123.414 L 111.414,90.586 C 111.789,90.211 112,89.702 112,89.172 L 112,12 L 16,12 z" style="fill:url(#radialGradient12366)"/><path id="path59" d="M 18,13 C 17.449,13 17,13.449 17,14 L 17,122 C 17,122.552 17.449,123 18,123 L 77.172,123 C 77.435,123 77.693,122.894 77.879,122.707 L 110.707,89.879 C 110.894,89.692 111,89.435 111,89.172 L 111,14 C 111,13.449 110.552,13 110,13 L 18,13 z" style="fill:url(#radialGradient12368);fill-opacity:1"/><g id="g1973" transform="translate(0,4)"><path id="path66" d="M 111.414,86.586 C 111.664,86.336 93.035,93 88,93 C 86.346,93 85,94.346 85,96 C 85,101.035 78.336,119.664 78.586,119.414 L 111.414,86.586 z" style="opacity:.1;fill:url(#linearGradient12370)"/><path id="path73" d="M 111.414,86.586 C 111.789,86.211 97.444,94 88,94 C 86.897,94 86,94.897 86,96 C 86,105.444 78.211,119.789 78.586,119.414 L 111.414,86.586 z" style="opacity:.1;fill:url(#linearGradient12372)"/><path id="path80" d="M 111.414,86.586 C 111.653,86.347 97.807,95 88,95 C 87.447,95 87,95.447 87,96 C 87,105.807 78.347,119.653 78.586,119.414 L 111.414,86.586 z" style="opacity:.1;fill:url(#linearGradient12374)"/><path id="path101" d="M 78.586,119.414 C 78.586,119.414 90.5,109.5 96,104 C 101.5,98.5 111.414,86.586 111.414,86.586 C 111.414,86.586 98.25,96 88,96 C 88,106.25 78.586,119.414 78.586,119.414 z" style="fill:url(#linearGradient12376)"/></g></g><path id="path1563" d="M 127.82442 115.70919 A 63.912209 12.641975 0 1 1 0,115.70919 A 63.912209 12.641975 0 1 1 127.82442 115.70919 z" transform="matrix(1.001374,0,0,0.410379,-2.393169e-5,75.32738)" style="opacity:.38139535;fill:url(#radialGradient3336);fill-opacity:1;fill-rule:nonzero;stroke:none;stroke-width:0;stroke-linecap:round;stroke-linejoin:round;stroke-miterlimit:4;stroke-dasharray:none;stroke-dashoffset:4;stroke-opacity:1"/><g id="g5654" transform="matrix(0.999982,0,0,0.9994,0,2.101207e-2)"><path id="path2619" d="M 39.65625,12 C 38.712319,12.077328 37.826439,12.487048 37.15625,13.15625 L 29.15625,21.15625 C 27.709618,22.60342 27.588273,24.908969 28.875,26.5 L 39.6875,40 L 4,40 C 1.7909525,40.000221 0.00022087162,41.790952 0,44 L 0,56 C 0.00022087162,58.209048 1.7909525,59.999779 4,60 L 39.6875,60 L 28.875,73.5 C 27.588273,75.091031 27.709618,77.39658 29.15625,78.84375 L 37.15625,86.84375 C 37.922536,87.610551 38.978588,88.048923 40.0625,88.03125 C 41.146412,88.013574 42.165369,87.541374 42.90625,86.75 L 74.90625,52.75 C 76.366399,51.207399 76.366399,48.792601 74.90625,47.25 L 42.90625,13.25 C 42.070592,12.358971 40.873613,11.898595 39.65625,12 z M 40,16 L 72,50 L 40,84 L 32,76 L 48,56 L 4,56 L 4,44 L 48,44 L 32,24 L 40,16 z" style="fill:url(#linearGradient8842);fill-opacity:1;stroke:none;stroke-width:8;stroke-linejoin:round;stroke-miterlimit:4;stroke-dasharray:none;stroke-opacity:1"/><path id="polygon3477_2_" d="M 32,76 L 40,84 L 72,50 L 40,16 L 32,24 L 48,44 L 4,44 L 4,56 L 48,56 L 32,76 z" style="fill:url(#linearGradient4395);fill-opacity:1"/></g></svg>